Coordinates
version=1
nRows=16
nColumns=40
inDegrees=yes

Units are S.I. units (second, meters, Newtons, ...)
Angles are in degrees.

endheader
time	pelvis_tilt	pelvis_list	pelvis_rotation	pelvis_tx	pelvis_ty	pelvis_tz	hip_flexion_r	hip_adduction_r	hip_rotation_r	knee_angle_r	knee_angle_r_beta	ankle_angle_r	subtalar_angle_r	mtp_angle_r	hip_flexion_l	hip_adduction_l	hip_rotation_l	knee_angle_l	knee_angle_l_beta	ankle_angle_l	subtalar_angle_l	mtp_angle_l	lumbar_extension	lumbar_bending	lumbar_rotation	arm_flex_r	arm_add_r	arm_rot_r	elbow_flex_r	pro_sup_r	wrist_flex_r	wrist_dev_r	arm_flex_l	arm_add_l	arm_rot_l	elbow_flex_l	pro_sup_l	wrist_flex_l	wrist_dev_l
      0.46000000	     -2.13537675	     -0.99225936	     -2.43867574	     -0.81700014	      0.88187772	     -1.02952041	     31.03662788	     -1.35440290	    -13.62266280	    -30.48353902	     -0.53203812	     -2.43758303	     -7.02151610	      9.14693968	     -8.51942742	     -1.63856770	      4.22540781	     -9.01247428	     -0.15729735	     11.20658118	    -10.95358479	     -5.47151995	     -8.53637996	      3.41592683	     -8.52487845	     -0.20543053	    -10.22154531	     16.25200992	     14.61541912	     89.95437384	      0.00000000	      0.00000000	     16.60015026	     14.70272644	    -15.91841026	     32.67054622	     89.95437384	      0.00000000	      0.00000000
      0.47000000	     -2.56284428	     -0.93631974	     -2.10234344	     -0.80514585	      0.87950996	     -1.02906937	     31.72394618	     -1.45408922	    -14.39226419	    -27.45917314	     -0.47925298	     -3.62123486	     -5.74389460	      9.22019898	     -8.90685949	     -1.62697168	      3.98957773	     -8.97759555	     -0.15668860	     11.24869052	    -11.14292178	     -5.53945964	     -7.90165592	      3.37132387	     -8.76571291	     -0.88585696	    -10.11105029	     15.90345898	     14.36307193	     89.95437384	      0.00000000	      0.00000000	     17.24612601	     14.93896408	    -15.68337504	     34.17083092	     89.95437384	      0.00000000	      0.00000000
      0.48000000	     -2.73753161	     -1.10279546	     -1.66023154	     -0.79316060	      0.87778358	     -1.02867527	     31.91932326	     -1.45824025	    -15.67880863	    -24.48097998	     -0.42727370	     -4.77773707	     -4.17458238	      9.23184978	     -9.37253045	     -1.32501707	      3.85052563	     -9.29358247	     -0.16220361	     11.33336368	    -11.25512673	     -5.65013393	     -7.59475601	      3.58948281	     -9.02129099	     -1.46924666	     -9.98719286	     15.61378815	     13.94113670	     89.95437384	      0.00000000	      0.00000000	     17.94939640	     15.04232576	    -15.37933296	     35.57843879	     89.95437384	      0.00000000	      0.00000000
      0.49000000	     -2.73318984	     -1.48421939	     -1.18371247	     -0.78061697	      0.87645331	     -1.02816650	     31.76789744	     -1.32091458	    -17.36485711	    -21.75369333	     -0.37967357	     -5.15735889	     -1.95500661	      8.91996976	    -10.07395733	     -0.73852586	      3.84318036	     -9.63972053	     -0.16824486	     11.51786698	    -11.59053962	     -5.89443459	     -7.44353299	      4.03854598	     -9.27135328	     -1.94048844	     -9.78559519	     14.66975450	     13.42024787	     89.95437384	      0.00000000	      0.00000000	     18.59264800	     14.98910457	    -14.85689268	     36.83564872	     89.95437384	      0.00000000	      0.00000000
      0.50000000	     -2.94583445	     -1.74515307	     -0.58622024	     -0.76846783	      0.87487501	     -1.02806380	     31.94586677	     -1.37236914	    -18.81197503	    -19.62492963	     -0.34251964	     -4.91576353	      0.22654705	      8.25531174	    -10.32488493	     -0.27750157	      3.42421158	    -10.28145272	     -0.17944520	     11.48464699	    -11.80994361	     -6.11982945	     -7.10841915	      4.41208852	     -9.55489844	     -2.46228266	     -9.68666904	     14.55827110	     12.94755249	     89.95437384	      0.00000000	      0.00000000	     19.24658088	     14.89989385	    -14.48402783	     38.13273263	     89.95437384	      0.00000000	      0.00000000
      0.51000000	     -3.18342053	     -2.02586738	     -0.21553739	     -0.75578730	      0.87323615	     -1.02735802	     32.22668959	     -1.30426535	    -20.28053269	    -18.13951588	     -0.31659428	     -4.47228505	      2.31256742	      6.82848329	    -10.72062284	      0.20881325	      3.15579832	    -10.68694105	     -0.18652231	     11.24893782	    -12.12325255	     -6.43472756	     -6.69902431	      4.75371950	     -9.59592592	     -2.91170906	     -9.49211959	     13.77560643	     12.34306870	     89.95437384	      0.00000000	      0.00000000	     19.74008178	     14.84362471	    -14.21587867	     39.52761212	     89.95437384	      0.00000000	      0.00000000
      0.52000000	     -3.33279704	     -2.32910104	      0.16775169	     -0.74287908	      0.87193665	     -1.02672480	     32.37814241	     -1.05420873	    -21.05602247	    -17.10871681	     -0.29860344	     -4.06012522	      2.54484704	      6.42346602	    -10.95701643	      0.70984384	      2.58731056	    -11.63443057	     -0.20305912	     11.20482590	    -11.99163314	     -6.50684835	     -6.39309240	      5.13349151	     -9.62927123	     -3.33957194	     -9.38894211	     14.28304975	     11.72654467	     89.95437384	      0.00000000	      0.00000000	     20.12035299	     14.81360781	    -14.10673669	     41.02282771	     89.95437384	      0.00000000	      0.00000000
      0.53000000	     -3.52394579	     -2.30241412	      0.31713139	     -0.72958503	      0.87051336	     -1.02601429	     32.82438395	     -1.06902673	    -21.12294585	    -17.15698274	     -0.29944584	     -3.89684449	      2.39420578	      6.28401840	    -11.31570588	      0.76326322	      2.36985835	    -12.26266262	     -0.21402384	     10.91607016	    -11.68717070	     -6.41254484	     -6.01640029	      5.14510549	     -9.20496508	     -4.01273703	     -9.32479020	     14.35243868	     11.50497109	     89.95437384	      0.00000000	      0.00000000	     20.65906948	     14.48129070	    -13.95947671	     42.07772134	     89.95437384	      0.00000000	      0.00000000
      0.54000000	     -3.31105362	     -3.16519701	      0.83427794	     -0.71545179	      0.87000026	     -1.02512276	     32.31029672	     -0.20049923	    -21.53265195	    -17.03462920	     -0.29731037	     -3.55558183	      1.29036122	      4.88195912	    -11.76487773	      2.02127100	      2.19379405	    -13.58731061	     -0.23714331	     10.33967537	    -12.35590142	     -7.07730989	     -6.03168740	      6.14684197	     -9.57389363	     -4.11540826	     -9.42942694	     16.71281404	     10.75416226	     89.95437384	      0.00000000	      0.00000000	     20.34863647	     14.57450014	    -13.31013800	     44.21646426	     89.95437384	      0.00000000	      0.00000000
      0.55000000	     -3.23070391	     -3.46726231	      1.08827472	     -0.70115844	      0.86921987	     -1.02436495	     32.22538430	      0.15820102	    -20.70320452	    -18.00289519	     -0.31420980	     -3.10004617	      0.84443374	      4.62468509	    -12.22281350	      2.46373277	      1.76975708	    -14.64410405	     -0.25558783	      9.85223573	    -11.84943458	     -6.99194069	     -5.87945344	      6.53206966	     -9.42855610	     -4.39697218	     -9.29369797	     16.92569769	     10.08664997	     89.95437384	      0.00000000	      0.00000000	     20.24656354	     14.49224294	    -13.09076602	     45.92616809	     89.95437384	      0.00000000	      0.00000000
      0.56000000	     -3.04467281	     -3.71139635	      1.28075068	     -0.68644059	      0.86878844	     -1.02324806	     31.93506189	      0.59776817	    -19.40336277	    -19.29301941	     -0.33672671	     -2.88801845	     -0.01629401	      4.41693350	    -12.66745973	      2.89712258	      1.33331207	    -15.98043893	     -0.27891128	      9.11092138	    -11.46340389	     -6.90329677	     -5.82152225	      6.80238427	     -9.32300522	     -4.60506214	     -9.12298012	     17.34450208	      9.38527331	     89.95437384	      0.00000000	      0.00000000	     19.91093737	     14.43479942	    -12.56813187	     47.69044859	     89.95437384	      0.00000000	      0.00000000
      0.57000000	     -2.85182096	     -4.11942087	      1.30220797	     -0.67136627	      0.86852541	     -1.02187166	     31.48353097	      1.52678935	    -17.70138481	    -20.33238438	     -0.35486705	     -4.81231074	     -3.38574207	      4.93061943	    -12.88079208	      3.58706115	      1.96914636	    -17.72855949	     -0.30942173	      7.50845671	    -11.99573909	     -7.43963107	     -5.77630085	      7.27007076	     -8.96606410	     -4.92052043	     -9.19303471	     18.78937821	      9.01683520	     89.95437384	      0.00000000	      0.00000000	     19.43103738	     14.21791291	    -11.90753943	     49.43618037	     89.95437384	      0.00000000	      0.00000000
      0.58000000	     -2.70530547	     -4.19680288	      1.32794987	     -0.65634545	      0.86854436	     -1.02077575	     31.34577662	      1.72890377	    -16.90536538	    -21.85368756	     -0.38141880	     -6.98987005	     -3.71075687	      5.15822222	    -13.00226150	      3.77220921	      1.68677188	    -19.49826023	     -0.34030884	      6.18422518	    -11.24475125	     -7.18634106	     -5.67612851	      7.36671338	     -8.65659888	     -5.01761026	     -9.04038916	     18.75387848	      8.42745999	     89.95437384	      0.00000000	      0.00000000	     18.94901199	     14.14324584	    -11.65908165	     50.93873499	     89.95437384	      0.00000000	      0.00000000
      0.59000000	     -2.71756167	     -4.61061482	      1.30263323	     -0.64155448	      0.86883493	     -1.01927785	     31.24908052	      2.45111155	    -15.62476409	    -22.92000743	     -0.40002959	     -7.10528921	     -4.81126334	      5.16473932	    -12.60131905	      4.36221934	      1.76242470	    -21.79839095	     -0.38045369	      4.38883097	    -10.61948429	     -6.95992779	     -5.42270734	      7.85227180	     -8.37655411	     -5.04312647	     -8.92457430	     19.25706163	      7.74834539	     89.95437384	      0.00000000	      0.00000000	     18.29340312	     13.90173040	    -10.99965029	     52.23313401	     89.95437384	      0.00000000	      0.00000000
      0.60000000	     -3.11665497	     -5.21379789	      1.17305869	     -0.62690735	      0.86891183	     -1.01705237	     31.51157303	      3.59940737	    -14.07636592	    -23.83974119	     -0.41608198	     -7.67568525	     -8.95359854	      5.77408910	    -11.29595311	      5.39338303	      2.73650248	    -24.85825586	     -0.43385841	      1.99371968	    -11.57307053	     -7.26882720	     -4.75881977	      8.45715385	     -7.99364563	     -5.19830860	     -8.94531844	     20.24832511	      7.54097930	     89.95437384	      0.00000000	      0.00000000	     17.47348301	     13.61344037	    -10.17760276	     53.38424576	     89.95437384	      0.00000000	      0.00000000
      0.61000000	     -3.02974957	     -5.40323931	      0.97487628	     -0.61168992	      0.87010887	     -1.01552813	     31.19198444	      3.94852273	    -13.83912325	    -25.27572426	     -0.44114461	     -6.70547313	     -9.23181119	      5.58201712	    -10.60003738	      5.65915968	      3.06449892	    -27.64315311	     -0.48246404	     -0.79539721	     -9.93105195	     -6.73317001	     -4.60748042	      8.66067035	     -7.39179215	     -5.25820928	     -8.91600528	     20.46087627	      7.25849466	     89.95437384	      0.00000000	      0.00000000	     16.86608936	     13.32091104	     -9.91921980	     54.01507354	     89.95437384	      0.00000000	      0.00000000
